<?xml version="1.0" encoding="UTF-8"?>
<svg version="1.1" xmlns="http://www.w3.org/2000/svg" width="1000" height="323">
<path d="M0 0 C1.16186325 -0.07170914 1.16186325 -0.07170914 2.34719849 -0.14486694 C14.54451188 -0.52514354 22.28365063 3.50056016 31.22265625 11.62890625 C40.88469735 20.80097411 49.72729394 30.77010121 58.38191223 40.88557434 C60.52899824 43.33609237 62.78658568 45.60768791 65.125 47.875 C67.23271052 50.17463213 69.33622687 52.47491217 71.37991238 54.83183002 C73.97588517 57.76014273 76.50468911 60.24306581 79.73023987 62.47026062 C85.04982994 66.38520092 89.25442616 70.41005384 90.90656662 76.98569107 C92.04126029 85.66491237 91.80417748 94.39850701 91.5774467 103.12779832 C91.49285948 106.95465151 91.4883058 110.78165416 91.47450256 114.60929871 C91.43634967 121.83745743 91.32612408 129.06262312 91.18980843 136.28952283 C91.03850146 144.52159833 90.97444931 152.75369277 90.91475666 160.9868561 C90.8236165 173.10323991 90.70349235 185.21963357 90.49421501 197.33460045 C90.46142395 199.2724972 90.43312958 201.21046838 90.40493774 203.1484375 C90.38333084 204.29073318 90.36172394 205.43302887 90.33946228 206.60993958 C90.32220061 207.60849378 90.30493895 208.60704798 90.2871542 209.6358614 C90.125 211.875 90.125 211.875 89.125 212.875 C87.52889018 212.96833705 85.92866572 212.99245372 84.32983398 212.98852539 C83.30885117 212.98844986 82.28786835 212.98837433 81.23594666 212.98829651 C80.1255452 212.98313522 79.01514374 212.97797394 77.87109375 212.97265625 C76.74051041 212.9712413 75.60992706 212.96982635 74.44508362 212.96836853 C70.81752935 212.96275019 67.19003576 212.95019458 63.5625 212.9375 C61.11002693 212.93248736 58.6575529 212.92792405 56.20507812 212.92382812 C50.17836455 212.9127748 44.15168661 212.89601884 38.125 212.875 C37.13816438 208.35076365 36.98011891 204.01374205 36.9921875 199.3984375 C36.99123077 198.5913736 36.99027405 197.78430969 36.98928833 196.95278931 C36.98861001 195.25335614 36.99043995 193.55392033 36.99462891 191.85449219 C36.99999609 189.25189422 36.99466497 186.64946773 36.98828125 184.046875 C36.98894182 182.39322879 36.99022254 180.73958268 36.9921875 179.0859375 C36.99016327 178.30777679 36.98813904 177.52961609 36.98605347 176.72787476 C37.00003842 173.51397192 37.1012664 170.94620079 38.125 167.875 C14.365 167.875 -9.395 167.875 -33.875 167.875 C-33.875 182.725 -33.875 197.575 -33.875 212.875 C-51.035 212.875 -68.195 212.875 -85.875 212.875 C-86.07839517 194.90703563 -86.24408276 176.94005804 -86.34130955 158.97126102 C-86.38765954 150.62747461 -86.45081533 142.28445575 -86.55395508 133.94116211 C-86.64384055 126.66656179 -86.70176589 119.39251745 -86.72179645 112.11737722 C-86.73350077 108.26715228 -86.76087621 104.41851746 -86.82657051 100.56880379 C-86.8879969 96.9395382 -86.90644026 93.31250585 -86.89296913 89.68276978 C-86.89659797 87.72685634 -86.94486184 85.77118238 -86.99478149 83.81590271 C-86.92489599 77.1394902 -86.27451085 73.51490049 -81.47839355 68.68104553 C-79.96521443 67.3870502 -78.43301895 66.11464186 -76.875 64.875 C-75.99191162 63.99118652 -75.10882324 63.10737305 -74.19897461 62.19677734 C-71.91813548 59.9180947 -69.63267476 57.64415243 -67.34584045 55.37149048 C-64.99259878 53.03177031 -62.64213541 50.68926675 -60.29174805 48.34667969 C-59.05827155 47.11823778 -57.82389981 45.89069412 -56.58862305 44.6640625 C-54.78713058 42.87480876 -52.98898459 41.08224754 -51.19140625 39.2890625 C-50.37549767 38.48089584 -50.37549767 38.48089584 -49.54310608 37.65640259 C-46.24367533 34.35744745 -43.15465089 30.94339963 -40.16265869 27.36271667 C-38.60462767 25.56262109 -36.91246866 24.05779058 -35.0625 22.5625 C-31.04568917 19.15243498 -27.60774036 15.36961116 -24.1484375 11.40234375 C-23.39820313 10.56832031 -22.64796875 9.73429687 -21.875 8.875 C-21.1221875 7.84246094 -20.369375 6.80992188 -19.59375 5.74609375 C-14.41852099 0.75135834 -6.84498466 0.40108775 0 0 Z M-1.9140625 60.6484375 C-2.49414062 61.2259375 -3.07421875 61.8034375 -3.671875 62.3984375 C-4.27515625 63.00945312 -4.8784375 63.62046875 -5.5 64.25 C-6.11101562 64.85328125 -6.72203125 65.4565625 -7.3515625 66.078125 C-8.2178125 66.94824219 -8.2178125 66.94824219 -9.1015625 67.8359375 C-9.89941162 68.63717041 -9.89941162 68.63717041 -10.71337891 69.45458984 C-12.08602129 70.82721331 -12.08602129 70.82721331 -11.875 72.875 C-12.535 72.875 -13.195 72.875 -13.875 72.875 C-15.55999782 74.59110548 -17.01236272 76.46477682 -18.5234375 78.3359375 C-20.41559309 80.37896264 -22.00323499 81.75745526 -24.2265625 83.3515625 C-29.29052759 87.2227869 -33.27890569 90.5830468 -34.45996094 97.10546875 C-35.01161671 105.04759469 -34.59404724 112.95526899 -33.875 120.875 C-30.31381625 121.97799699 -27.00140745 122.00188623 -23.28637695 122.00439453 C-22.30767639 122.00702301 -22.30767639 122.00702301 -21.3092041 122.00970459 C-19.16053582 122.01409301 -17.01195032 122.01119677 -14.86328125 122.0078125 C-13.3692371 122.00848616 -11.87519306 122.0094567 -10.38114929 122.01071167 C-7.25498406 122.01218435 -4.12884745 122.01004696 -1.00268555 122.00537109 C3.01255652 121.99965922 7.02773196 122.00296471 11.04297161 122.00894356 C14.12521369 122.01254813 17.20743984 122.01141132 20.28968239 122.00881577 C21.77092306 122.00814697 23.25216516 122.00897326 24.73340416 122.01129532 C26.79716232 122.01382175 28.86081062 122.00998213 30.92456055 122.00439453 C32.10052292 122.00359894 33.27648529 122.00280334 34.48808289 122.00198364 C37.04930565 122.17478642 37.04930565 122.17478642 38.125 120.875 C38.4633999 116.46637757 38.45013409 112.04493288 38.5 107.625 C38.53738281 106.38363281 38.57476562 105.14226562 38.61328125 103.86328125 C38.84894085 96.96956305 38.84894085 96.96956305 36.03125 90.94140625 C35.0721875 90.25949219 34.113125 89.57757813 33.125 88.875 C32.00579059 87.80328659 30.90534518 86.71177044 29.8203125 85.60546875 C29.24047607 85.03078857 28.66063965 84.4561084 28.06323242 83.86401367 C23.1294945 78.96216203 18.28912296 74.06306935 13.78125 68.76171875 C10.43788867 64.95312553 6.931024 61.22368099 3.125 57.875 C0.44012835 57.875 -0.03623215 58.77853766 -1.9140625 60.6484375 Z " fill="#FE5C2B" transform="translate(361.875,100.125)"/>
<path d="M0 0 C0.50144531 0.69222656 1.00289062 1.38445312 1.51953125 2.09765625 C4.26986094 5.78060313 7.1178706 9.33388102 10.08203125 12.84765625 C13.73863077 17.19423292 17.28217513 21.61435534 20.76953125 26.09765625 C24.37618381 30.73214433 28.07303605 35.26379507 31.89453125 39.72265625 C35.70895679 44.18424529 39.41761397 48.71237557 43.01953125 53.34765625 C43.45402588 53.90074463 43.88852051 54.45383301 44.33618164 55.02368164 C47.33203125 58.92042821 47.33203125 58.92042821 47.33203125 61.16015625 C53.84279917 54.85284983 59.73021604 48.05225062 65.234375 40.85546875 C67.96276112 37.34972122 70.77263721 33.9136037 73.58203125 30.47265625 C78.6112215 24.30148538 83.58132542 18.08847269 88.50390625 11.83203125 C88.94613525 11.29416992 89.38836426 10.75630859 89.84399414 10.20214844 C91.4745143 8.06291932 91.4745143 8.06291932 92.97436523 5.09472656 C97.81372388 -3.06375445 97.81372388 -3.06375445 102.35809326 -4.4642334 C108.19212689 -5.34111206 114.03040959 -4.93367904 119.89453125 -4.58984375 C121.68406542 -4.52957153 123.47379499 -4.47483241 125.26367188 -4.42578125 C129.62466003 -4.29429495 133.97617576 -4.08778707 138.33203125 -3.83984375 C138.55658742 1.37024322 138.71876176 6.57744457 138.82641602 11.79125977 C138.87133858 13.55966311 138.93250484 15.32773866 139.01098633 17.0949707 C139.72677594 33.64234227 139.72677594 33.64234227 134.125 40.50390625 C132.56015446 42.08906447 130.96566412 43.64598591 129.33203125 45.16015625 C128.37071208 46.26269124 127.42428325 47.37868871 126.50390625 48.515625 C125.7046875 49.45019531 124.90546875 50.38476562 124.08203125 51.34765625 C119.83537133 56.34152008 115.65848657 61.38919751 111.51953125 66.47265625 C110.99262695 67.11807373 110.46572266 67.76349121 109.92285156 68.4284668 C106.68313431 72.42088176 103.59894594 76.487239 100.62231445 80.68041992 C100.196521 81.16873291 99.77072754 81.6570459 99.33203125 82.16015625 C98.67203125 82.16015625 98.01203125 82.16015625 97.33203125 82.16015625 C96.89890625 83.05734375 96.89890625 83.05734375 96.45703125 83.97265625 C95.33203125 86.16015625 95.33203125 86.16015625 93.33203125 89.16015625 C92.67203125 89.16015625 92.01203125 89.16015625 91.33203125 89.16015625 C91.10515625 89.69640625 90.87828125 90.23265625 90.64453125 90.78515625 C89.45414116 92.93919546 88.28702302 94.36254026 86.64453125 96.16015625 C84.13061825 98.76541558 84.13061825 98.76541558 84.38671875 100.94921875 C85.78064491 104.20939315 87.93130994 106.80198187 90.14453125 109.53515625 C90.62720459 110.14222412 91.10987793 110.74929199 91.60717773 111.37475586 C95.73752512 116.52824722 100.03634881 121.53670678 104.4465332 126.45263672 C107.19864817 129.57821003 108.82369411 132.31632935 110.33203125 136.16015625 C111.32203125 136.49015625 112.31203125 136.82015625 113.33203125 137.16015625 C115.20703125 139.20703125 115.20703125 139.20703125 117.33203125 141.91015625 C118.51539063 143.39322266 118.51539063 143.39322266 119.72265625 144.90625 C120.14353516 145.43460449 120.56441406 145.96295898 120.99804688 146.50732422 C123.30944271 149.37118765 125.69700046 152.1700826 128.08203125 154.97265625 C129.83381984 157.03365825 131.58351144 159.09637302 133.33203125 161.16015625 C134.19940918 162.02560059 135.06678711 162.89104492 135.96044922 163.78271484 C139.18310497 167.67683208 138.9905371 171.3625957 138.85546875 176.2421875 C138.85076569 177.09697189 138.84606262 177.95175629 138.84121704 178.83244324 C138.8199622 181.54668593 138.76336139 184.25893955 138.70703125 186.97265625 C138.6905159 188.81573687 138.67616996 190.65883828 138.6640625 192.50195312 C138.52791202 205.96427548 138.52791202 205.96427548 137.33203125 207.16015625 C105.60089262 210.55683322 105.60089262 210.55683322 97.62109375 204.390625 C94.96034308 201.56929123 93.035772 198.40773413 91.28515625 194.95947266 C89.90120502 192.34683932 88.05758365 190.21542033 86.14453125 187.97265625 C85.52320313 187.18761719 84.901875 186.40257812 84.26171875 185.59375 C79.58328265 179.69361703 74.85912026 173.83024053 69.83203125 168.22265625 C66.99108872 165.02085497 64.43756363 161.66553086 61.89453125 158.22265625 C55.68282076 149.0447987 55.68282076 149.0447987 47.33203125 142.16015625 C47.10902344 142.69253906 46.88601563 143.22492188 46.65625 143.7734375 C44.88045479 146.97405955 42.53734266 149.60201741 40.14453125 152.34765625 C36.95443118 156.05842032 33.80038178 159.76735592 30.83203125 163.66015625 C28.02969578 167.32320904 25.07873225 170.84343685 22.08203125 174.34765625 C18.14943356 178.94710637 14.35521018 183.63003531 10.64453125 188.41015625 C6.41374451 193.85358887 2.04656392 199.12316734 -2.66796875 204.16015625 C-3.03768799 204.68561035 -3.40740723 205.21106445 -3.78833008 205.75244141 C-6.72946315 207.95513959 -9.87293672 207.52808586 -13.3984375 207.453125 C-14.14885818 207.44888016 -14.89927887 207.44463531 -15.67243958 207.44026184 C-18.06714901 207.42348075 -20.46101409 207.38583115 -22.85546875 207.34765625 C-24.47980555 207.3326086 -26.10415555 207.31892034 -27.72851562 207.30664062 C-31.70865823 207.2735793 -35.68817038 207.22180219 -39.66796875 207.16015625 C-42.01843218 203.49032891 -41.95849912 199.94365453 -41.93359375 195.7265625 C-41.9355072 195.01161118 -41.93742065 194.29665985 -41.93939209 193.56004333 C-41.94075003 192.05133715 -41.93708089 190.54261913 -41.92871094 189.03393555 C-41.91802121 186.73394282 -41.92861088 184.43473391 -41.94140625 182.13476562 C-41.94008428 180.66536287 -41.9375211 179.1959606 -41.93359375 177.7265625 C-41.93764221 177.04308243 -41.94169067 176.35960236 -41.94586182 175.65541077 C-41.88823686 169.73785198 -40.62089682 165.84485919 -36.60546875 161.53515625 C-33.77894135 158.41723428 -31.06860041 155.24192725 -28.41796875 151.97265625 C-25.08311966 147.87474846 -21.70957838 143.8147867 -18.29296875 139.78515625 C-17.60448853 138.97304688 -17.60448853 138.97304688 -16.90209961 138.14453125 C-15.01516156 135.920816 -13.12642483 133.69864285 -11.23583984 131.47802734 C-5.90135384 125.21168981 -0.63802068 118.91263916 4.47265625 112.4609375 C7.32171378 108.93552808 10.31172874 105.53911969 13.33203125 102.16015625 C11.84522605 97.27364403 9.05380693 94.41664375 5.58203125 90.84765625 C1.76736642 86.82571542 -1.81509838 82.83939456 -5.04296875 78.32421875 C-8.16578358 74.16547015 -11.60806237 70.26205902 -14.984375 66.30859375 C-15.64590576 65.53080566 -15.64590576 65.53080566 -16.32080078 64.73730469 C-17.2479049 63.65193089 -18.18157469 62.57214219 -19.12060547 61.49707031 C-22.66796875 57.37908224 -22.66796875 57.37908224 -22.66796875 55.16015625 C-23.32796875 55.16015625 -23.98796875 55.16015625 -24.66796875 55.16015625 C-26.51644186 52.98723295 -28.26010365 50.80612957 -29.98046875 48.53515625 C-30.93401998 47.29229628 -31.88844112 46.05010323 -32.84375 44.80859375 C-33.54491943 43.88771973 -33.54491943 43.88771973 -34.26025391 42.94824219 C-35.6032869 41.24231544 -37.01727138 39.63240398 -38.4609375 38.01171875 C-42.25268545 33.11264618 -41.77204975 28.21377331 -41.546875 22.234375 C-41.52326401 21.48678421 -41.49965302 20.73919342 -41.47532654 19.96894836 C-41.39911305 17.59497051 -41.3149086 15.22135432 -41.23046875 12.84765625 C-41.1772056 11.23243923 -41.12446553 9.61720486 -41.07226562 8.00195312 C-40.94355571 4.05446103 -40.80768131 0.10727363 -40.66796875 -3.83984375 C-35.91803543 -4.05753473 -31.16786038 -4.25425933 -26.41625977 -4.43188477 C-24.80111691 -4.49518244 -23.18618498 -4.5641318 -21.5715332 -4.63891602 C-19.2459343 -4.74563429 -16.92032601 -4.83177586 -14.59375 -4.9140625 C-13.5168969 -4.97009895 -13.5168969 -4.97009895 -12.41828918 -5.02726746 C-6.95011301 -5.1900067 -3.67634791 -4.05517533 0 0 Z " fill="#FE5C2B" transform="translate(683.66796875,106.83984375)"/>
<path d="M0 0 C36.63 0 73.26 0 111 0 C112.79429306 5.38287918 112.34543951 11.29854757 112.4050293 16.94091797 C112.42657896 18.4733742 112.4606471 20.00570834 112.50756836 21.53759766 C112.94319166 35.90851594 112.94319166 35.90851594 109.14453125 40.37109375 C108.12610595 41.28180251 107.078671 42.16151958 106 43 C105.0925 43.928125 104.185 44.85625 103.25 45.8125 C102.5075 46.534375 101.765 47.25625 101 48 C100.01 48.99 100.01 48.99 99 50 C95.95066833 50.16407776 95.95066833 50.16407776 91.97436523 50.04907227 C90.47278378 50.01327259 88.97119112 49.97794047 87.46958923 49.94300842 C86.67048567 49.92124102 85.8713821 49.89947361 85.04806328 49.87704659 C80.79368355 49.77341527 76.53856685 49.74227929 72.28320312 49.70117188 C66.87686768 49.64768954 61.47453969 49.57305224 56.07055664 49.40014648 C32.13056236 47.8185784 32.13056236 47.8185784 11.1640625 57.2421875 C0.55248645 69.19521939 2.54119235 88.0837104 2.90008545 103.00183105 C2.94994589 106.41430267 2.87658488 109.81995948 2.80761337 113.23174191 C2.04731799 134.57984016 2.04731799 134.57984016 10.66796875 153.2890625 C22.371742 163.9064352 43.12012656 160.51063295 57.67358398 159.92102051 C64.78264995 159.63543715 71.89001854 159.43030851 79.00404739 159.32718468 C81.4690049 159.27077688 83.92323632 159.14422174 86.38510132 159.01167297 C97.2014965 158.65387608 97.2014965 158.65387608 102.19903564 162.39437866 C104.7819627 165.03673997 106.88653581 167.97199862 109 171 C109.57211212 171.55838562 110.14422424 172.11677124 110.7336731 172.69207764 C112.76102704 174.78602475 112.35437543 176.792276 112.328125 179.62890625 C112.32296875 180.74716797 112.3178125 181.86542969 112.3125 183.01757812 C112.291875 184.18740234 112.27125 185.35722656 112.25 186.5625 C112.24484375 187.70525391 112.2396875 188.84800781 112.234375 190.02539062 C112.18772092 195.12526471 112.00970374 200.1429355 111.4899292 205.21714783 C111.39857067 206.11392211 111.30721214 207.01069639 111.21308517 207.93464565 C111.10760801 208.95699605 111.10760801 208.95699605 111 210 C96.4661963 210.11679545 81.93246535 210.20463696 67.39828873 210.25906086 C60.64980635 210.28484403 53.90161554 210.31999594 47.15332031 210.37719727 C40.64352254 210.43235069 34.13391417 210.46140404 27.62389374 210.47438622 C25.13750178 210.48364044 22.65112683 210.50171135 20.16486359 210.52865028 C16.68799191 210.56483175 13.21238053 210.56994967 9.73535156 210.56762695 C8.18599915 210.59459152 8.18599915 210.59459152 6.60534668 210.62210083 C-0.40406318 210.57127401 -0.40406318 210.57127401 -3.51861572 207.58561707 C-4.00747253 206.73236343 -4.49632935 205.8791098 -5 205 C-6.2065625 204.0409375 -6.2065625 204.0409375 -7.4375 203.0625 C-10.40696837 200.67244009 -12.56330656 197.92403212 -15 195 C-16.3921875 193.88625 -16.3921875 193.88625 -17.8125 192.75 C-18.534375 192.1725 -19.25625 191.595 -20 191 C-20 190.34 -20 189.68 -20 189 C-20.54140625 188.7834375 -21.0828125 188.566875 -21.640625 188.34375 C-24.81645344 186.53500003 -27.20728081 184.08276201 -29.75 181.5 C-30.50990234 180.75169922 -30.50990234 180.75169922 -31.28515625 179.98828125 C-35 176.25341139 -35 176.25341139 -35 174 C-35.5549263 173.74452896 -36.1098526 173.48905792 -36.68159485 173.22584534 C-41.84812266 170.49406913 -46.2337298 167.26223633 -49 162 C-51.27419769 154.21776571 -51.20721655 145.86113059 -51.48828125 137.81640625 C-51.53996775 136.63736599 -51.59165424 135.45832573 -51.644907 134.24355698 C-52.02817372 125.35070226 -52.20017637 116.46239462 -52.3125 107.5625 C-52.3351165 106.27107716 -52.357733 104.97965431 -52.38103485 103.64909744 C-53.3166114 46.27186682 -53.3166114 46.27186682 -35.17117596 27.15786457 C-13.80637439 6 -13.80637439 6 -4 6 C-3.34 4.68 -2.68 3.36 -2 2 C-1.34 2 -0.68 2 0 2 C0 1.34 0 0.68 0 0 Z " fill="#FE5C2B" transform="translate(518,103)"/>
<path d="M0 0 C0.98742187 0.26683594 1.97484375 0.53367187 2.9921875 0.80859375 C16.51281905 4.84326497 28.08705032 12.22219265 39 21 C39.60328125 21.46148437 40.2065625 21.92296875 40.828125 22.3984375 C45.12205621 25.76578356 48.56102309 29.79602618 52 34 C53.07121094 35.29744141 53.07121094 35.29744141 54.1640625 36.62109375 C71.97324502 59.17327162 80.29195741 88.44926872 77.375 117 C74.27775043 142.27410467 64.33310615 165.99930732 44 182 C25.60982447 194.85642621 4.8611104 199.16431965 -17.27734375 195.375 C-43.37260586 189.13664492 -67.19677223 171.34885542 -81.61499023 148.85009766 C-98.77357346 120.60313284 -105.65191785 88.43889961 -98 56 C-95.03173579 45.04025521 -90.3681467 35.69298935 -83.875 26.4375 C-83.44300293 25.81697754 -83.01100586 25.19645508 -82.56591797 24.55712891 C-79.36709128 20.12236376 -79.36709128 20.12236376 -76 19 C-76 18.34 -76 17.68 -76 17 C-54.66617103 -2.13162727 -27.49840326 -7.9600641 0 0 Z M-53 23 C-53 23.33 -53 23.66 -53 24 C-52.17145508 24.01401855 -52.17145508 24.01401855 -51.32617188 24.02832031 C-24.04388347 24.60470669 -1.09605521 31.75321897 18.328125 51.86328125 C33.30293004 68.78826833 39.37846871 91.58853534 38.1953125 113.79736328 C36.75162785 130.07851691 30.32440376 145.41713292 20 158 C18.948125 159.29744141 18.948125 159.29744141 17.875 160.62109375 C13.15434425 166.15943452 8.09957044 170.40674004 2.08984375 174.50390625 C1.05537109 175.24447266 1.05537109 175.24447266 0 176 C0 176.33 0 176.66 0 177 C14.10350463 177.95616981 26.14115048 172.08125218 36.75 163.1875 C50.59721161 150.26343583 57.74056853 129.29885545 58.96484375 110.68359375 C59.3141774 84.01779155 51.23711968 59.92191197 32.51538086 40.48364258 C16.4888701 24.79279259 -3.82293044 15.45760825 -26.39453125 15.64428711 C-36.13674881 15.92795023 -44.49569193 18.25721281 -53 23 Z M-65 46 C-66.62615234 46.67289063 -66.62615234 46.67289063 -68.28515625 47.359375 C-72.81435353 49.38262481 -72.81435353 49.38262481 -77 52 C-77.91661334 54.59397497 -77.91661334 54.59397497 -78 57 C-77.35417969 56.7834375 -76.70835938 56.566875 -76.04296875 56.34375 C-60.67241344 51.80197169 -43.81773476 52.33184466 -29.49609375 59.8359375 C-14.8907917 68.50939333 -5.35389808 79.37369557 0.25 95.625 C3.77529492 112.66962978 2.01609711 128.74219335 -6.87890625 143.77734375 C-9.52581525 147.79889058 -12.3591828 150.89220567 -16 154 C-16.78375 154.86625 -17.5675 155.7325 -18.375 156.625 C-22.95197992 160.76607707 -28.50494328 163.27116231 -34 166 C-33.67 166.99 -33.34 167.98 -33 169 C-14.93766112 166.07928137 -0.7682239 156.73062358 10.1875 142 C19.24728651 127.70173358 22.44405811 109.29871806 18.87304688 92.84375 C15.71107188 79.94785197 10.32059715 70.42512721 1 61 C0.175 60.0925 -0.65 59.185 -1.5 58.25 C-13.17391038 47.74348065 -27.74628848 42.58900639 -43.3125 42.6875 C-44.24312256 42.69313965 -45.17374512 42.6987793 -46.13256836 42.70458984 C-52.82267106 42.82287437 -58.77336134 43.39666278 -65 46 Z M-79.75 78.1875 C-83.22205909 82.52757386 -82.26610898 86.89640321 -81.80664062 92.25512695 C-79.40952611 113.35298663 -71.51165536 134.70329866 -56.46875 150.1640625 C-53.82912201 152.12707699 -52.73889956 152.65418694 -49.5 152.4375 C-47.26127931 151.89712443 -47.26127931 151.89712443 -45 151 C-44.11570313 150.69320312 -43.23140625 150.38640625 -42.3203125 150.0703125 C-38.57342346 148.66930182 -35.33676986 147.22451324 -32 145 C-32 144.34 -32 143.68 -32 143 C-31.4121875 142.75378906 -30.824375 142.50757813 -30.21875 142.25390625 C-23.48847762 138.45035443 -19.45866663 130.06528927 -17 123 C-14.07546203 111.78927113 -16.12963493 100.87351145 -21.625 90.875 C-28.0441528 80.82831613 -36.88807993 75.70397336 -48 72 C-59.23654442 71.2057599 -70.05810701 71.69618562 -79.75 78.1875 Z " fill="#FE5C2B" transform="translate(112,127)"/>
<path d="M0 0 C54.45 0 108.9 0 165 0 C165 12.54 165 25.08 165 38 C162.525 40.475 162.525 40.475 160 43 C159.48614243 43.65597672 158.97228485 44.31195343 158.44285583 44.98780823 C155.96852749 48.04037106 154.07144417 49.75483698 150.18118286 50.64498901 C146.71906889 50.90558036 143.31933265 50.94322132 139.84765625 50.90234375 C138.59238632 50.91463516 137.33711639 50.92692657 136.04380798 50.93959045 C132.72699319 50.96591059 129.41298791 50.96242965 126.09631348 50.94421387 C122.70403116 50.93301553 119.31209701 50.96139796 115.91992188 50.98632812 C109.27967271 51.02715511 102.64029328 51.02867126 96 51 C96.85224655 51.50904877 97.7044931 52.01809753 98.58256531 52.54257202 C103.57377426 56.08521399 107.27409431 59.87881286 108.69318008 65.98047638 C109.67455353 74.46923898 109.44073779 83.0234419 109.24965882 91.55169725 C109.17771577 95.32772469 109.17420203 99.103855 109.1627655 102.88046265 C109.13074755 110.02676297 109.03684437 117.17085126 108.92077035 124.31622541 C108.79256182 132.41636185 108.73885917 140.5164819 108.68910944 148.61741567 C108.6084256 161.23847235 108.48985806 173.85904948 108.30395508 186.47900391 C108.28869781 187.70524979 108.27344055 188.93149567 108.25772095 190.19490051 C108.14937574 196.8469814 107.80275648 203.39414323 107 210 C99.75526231 210.16733056 92.5104063 210.32778111 85.26538086 210.48217773 C82.79854365 210.53568795 80.33174536 210.59102393 77.86499023 210.64819336 C74.32804767 210.72985335 70.79101902 210.80503753 67.25390625 210.87890625 C66.14350479 210.90594131 65.03310333 210.93297638 63.88905334 210.96083069 C62.86807053 210.98092697 61.84708771 211.00102325 60.79516602 211.02172852 C59.43948265 211.05170677 59.43948265 211.05170677 58.05641174 211.08229065 C56 211 56 211 55 210 C54.87936989 208.11220288 54.82918727 206.21988621 54.8057251 204.3283844 C54.78845367 203.09616653 54.77118225 201.86394867 54.75338745 200.59439087 C54.73938098 199.21600526 54.72556292 197.83761772 54.71191406 196.45922852 C54.69419991 195.01719318 54.67619797 193.57516135 54.65792847 192.13313293 C54.49857556 178.93788662 54.41449943 165.74158339 54.34793472 152.54557896 C54.29775109 142.79313454 54.21193908 133.04237821 54.07931352 123.29069954 C53.98919532 116.43286506 53.94146718 109.57549226 53.92435622 102.71709198 C53.91291025 98.6223691 53.88275334 94.52980193 53.80640411 90.43573189 C53.73521048 86.57633978 53.71681227 82.7201557 53.73752213 78.86019707 C53.73610169 77.45003196 53.71608467 76.03973285 53.67528152 74.63015747 C53.50592422 68.45827514 53.49082308 63.84827666 57.4986496 58.93992424 C60.15695961 56.39706486 63.07102185 54.22203336 66 52 C66.495 51.01 66.495 51.01 67 50 C44.89 50 22.78 50 0 50 C0 33.5 0 17 0 0 Z " fill="#FE5C2B" transform="translate(835,103)"/>
<path d="M0 0 C9.44435276 8.32245341 12.52439515 24.30970477 13.8125 36.3125 C14.88943478 55.97826548 8.52885542 73.32615289 -4.3125 88.0625 C-19.80133145 104.70721439 -38.00220762 115.47382796 -61.09057617 116.33666992 C-78.60564864 116.64756493 -94.3143661 111.13946945 -108 100 C-108 99.34 -108 98.68 -108 98 C-108.87398437 97.62101562 -108.87398437 97.62101562 -109.765625 97.234375 C-121.74625295 90.61570641 -128.19365147 73.93504136 -132.03515625 61.4921875 C-133.75329442 55.27350117 -135.1248684 49.47045348 -135 43 C-115.15214765 36.79754614 -94.4823441 39.29705491 -76.1015625 48.62109375 C-67.32121285 53.43579501 -57.49871539 62.00256922 -53 71 C-52.84144531 69.85144531 -52.68289062 68.70289062 -52.51953125 67.51953125 C-49.66311769 48.02387674 -42.329469 28.20980604 -26.0625 15.75 C-25.051875 15.1725 -24.04125 14.595 -23 14 C-21.38968723 12.86282037 -19.78616431 11.71599779 -18.1875 10.5625 C-12.39397128 6.49042703 -6.33678692 3.13997738 0 0 Z M-20.84765625 33.8046875 C-30.95586296 45.07196858 -36.50778118 58.92102123 -36.26953125 74.0390625 C-35.77395197 79.48325222 -34.40781356 84.72907898 -33 90 C-22.57563745 86.3749514 -14.32926647 77.42591349 -9 68 C-7.03876361 63.40258802 -5.4232406 58.79503807 -4 54 C-3.79632813 53.36320312 -3.59265625 52.72640625 -3.3828125 52.0703125 C-2.78414456 48.83261856 -2.80907029 45.59358692 -2.8125 42.3125 C-2.81258057 41.60077637 -2.81266113 40.88905273 -2.81274414 40.15576172 C-2.87702718 34.21330197 -3.2935081 28.41298379 -6 23 C-11.24508629 23 -17.23600768 30.27703076 -20.84765625 33.8046875 Z M-116 56 C-113.51511281 66.04853503 -109.28956857 75.50794341 -102 83 C-101.34 83 -100.68 83 -100 83 C-99.7628125 83.5878125 -99.525625 84.175625 -99.28125 84.78125 C-94.78038442 92.57543186 -83.93189737 96.19149471 -75.7578125 98.68359375 C-69.84595333 100.20889549 -64.07521065 100.20439961 -58 100 C-60.37529752 85.51068513 -69.12303709 73.84680548 -80.61328125 64.984375 C-91.73937231 57.95737012 -103.02898238 55.76511236 -116 56 Z " fill="#FE5C2B" transform="translate(136,0)"/>
<path d="M0 0 C1.70736328 0.54333984 1.70736328 0.54333984 3.44921875 1.09765625 C16.83550326 5.77097451 27.05106141 14.2067347 37 24 C37.73089844 24.70640625 38.46179688 25.4128125 39.21484375 26.140625 C56.76522897 44.35132174 63.42553763 71.48243905 63.36914062 96.05273438 C62.72044314 123.90487461 53.14002501 152.38233875 33 172 C32.27039063 172.72703125 31.54078125 173.4540625 30.7890625 174.203125 C21.32467859 183.13975516 10.18023431 189.56068383 -2 194 C-0.77404139 190.69449479 0.58880765 187.9347825 2.625 185.0625 C4.88481593 181.77400273 6.90339161 178.42790067 8.82177734 174.92895508 C12.2863103 168.62056819 16.11970118 163.19624611 20.77734375 157.67578125 C32.08953705 144.05741146 39.03562788 127.4284637 42 110 C42.226875 108.72125 42.45375 107.4425 42.6875 106.125 C45.08053856 81.6854573 39.50634834 57.16316737 23.8125 37.8125 C12.61430979 25.81622051 -3.66802339 16.51910157 -20.34570312 15.91503906 C-22.07583802 15.89313022 -23.80598181 15.8719154 -25.53613281 15.85131836 C-36.75449644 15.69085418 -44.46011619 13.26968714 -54.24365234 7.91113281 C-57.68265532 6.12709624 -61.29344169 5.07827151 -65 4 C-62.86760668 1.86760668 -61.93794294 1.52444642 -59.11328125 0.74609375 C-57.9521582 0.42415039 -57.9521582 0.42415039 -56.76757812 0.09570312 C-55.55231445 -0.23010742 -55.55231445 -0.23010742 -54.3125 -0.5625 C-53.52166016 -0.78357422 -52.73082031 -1.00464844 -51.91601562 -1.23242188 C-34.81839191 -5.90567823 -16.80442901 -5.55292616 0 0 Z " fill="#FE5C2B" transform="translate(175,113)"/>
</svg>
